<svg width="14" height="14" viewBox="0 0 14 14" fill="none" xmlns="http://www.w3.org/2000/svg">
<path d="M6.5625 0C5.26456 0 3.99577 0.384884 2.91657 1.10598C1.83738 1.82708 0.996244 2.852 0.499543 4.05114C0.00284341 5.25028 -0.127116 6.56978 0.1261 7.84278C0.379315 9.11578 1.00433 10.2851 1.92211 11.2029C2.8399 12.1207 4.00922 12.7457 5.28222 12.9989C6.55522 13.2521 7.87472 13.1222 9.07386 12.6255C10.273 12.1288 11.2979 11.2876 12.019 10.2084C12.7401 9.12923 13.125 7.86044 13.125 6.5625C13.125 4.82202 12.4336 3.15282 11.2029 1.92211C9.97218 0.691404 8.30299 0 6.5625 0ZM3.75 11.4328C3.81964 10.739 4.14453 10.0958 4.66163 9.62802C5.17872 9.16023 5.85115 8.90121 6.54844 8.90121C7.24573 8.90121 7.91816 9.16023 8.43525 9.62802C8.95235 10.0958 9.27724 10.739 9.34688 11.4328C8.49714 11.9273 7.53157 12.1878 6.54844 12.1878C5.56531 12.1878 4.59974 11.9273 3.75 11.4328ZM10.1906 10.8422C9.99083 10.027 9.52337 9.30249 8.86304 8.78448C8.20272 8.26646 7.38771 7.98492 6.54844 7.98492C5.70917 7.98492 4.89416 8.26646 4.23384 8.78448C3.57352 9.30249 3.10605 10.027 2.90625 10.8422C2.02881 10.0967 1.40129 9.09981 1.10843 7.98628C0.815575 6.87274 0.87149 5.69616 1.26863 4.61542C1.66576 3.53467 2.38499 2.60183 3.32918 1.94287C4.27337 1.28391 5.39704 0.930569 6.54844 0.930569C7.69984 0.930569 8.82351 1.28391 9.7677 1.94287C10.7119 2.60183 11.4311 3.53467 11.8283 4.61542C12.2254 5.69616 12.2813 6.87274 11.9884 7.98628C11.6956 9.09981 11.0681 10.0967 10.1906 10.8422ZM6.5625 2.8125C6.09895 2.8125 5.64581 2.94996 5.26039 3.20749C4.87496 3.46503 4.57455 3.83107 4.39716 4.25934C4.21977 4.6876 4.17335 5.15885 4.26379 5.61349C4.35422 6.06814 4.57744 6.48575 4.90522 6.81353C5.233 7.14131 5.65062 7.36453 6.10526 7.45497C6.5599 7.5454 7.03115 7.49899 7.45942 7.32159C7.88768 7.1442 8.25373 6.8438 8.51126 6.45837C8.7688 6.07294 8.90625 5.6198 8.90625 5.15625C8.90625 4.53465 8.65932 3.93851 8.21978 3.49897C7.78025 3.05943 7.1841 2.8125 6.5625 2.8125ZM6.5625 6.5625C6.28437 6.5625 6.01249 6.48002 5.78123 6.3255C5.54998 6.17098 5.36973 5.95136 5.2633 5.6944C5.15686 5.43744 5.12901 5.15469 5.18327 4.8819C5.23753 4.60912 5.37147 4.35855 5.56813 4.16188C5.7648 3.96521 6.01537 3.83128 6.28816 3.77702C6.56094 3.72276 6.84369 3.75061 7.10065 3.85704C7.35761 3.96348 7.57724 4.14372 7.73176 4.37498C7.88628 4.60624 7.96875 4.87812 7.96875 5.15625C7.96875 5.52921 7.82059 5.8869 7.55687 6.15062C7.29315 6.41434 6.93546 6.5625 6.5625 6.5625Z" fill="white"/>
</svg>
