<svg width="7" height="7" viewBox="0 0 7 7" fill="none" xmlns="http://www.w3.org/2000/svg">
<path d="M6.78125 0.419792C6.78125 0.306585 6.73718 0.200108 6.65708 0.120133C6.4969 -0.0400444 6.21794 -0.0400444 6.05776 0.120133L3.39062 2.78727L0.723487 0.120133C0.56331 -0.0400444 0.284344 -0.0400444 0.124167 0.120133C0.0440869 0.200108 0 0.306587 0 0.419792C0 0.532987 0.0440869 0.639463 0.124169 0.719451L2.79131 3.38659L0.124169 6.05373C0.0440869 6.1337 0 6.24018 0 6.35339C0 6.46658 0.0440869 6.57306 0.124169 6.65305C0.284347 6.81322 0.563312 6.81322 0.723489 6.65305L3.39062 3.98591L6.05776 6.65305C6.13786 6.73313 6.24423 6.77722 6.35742 6.77722C6.47063 6.77722 6.577 6.73313 6.65708 6.65305C6.73718 6.57306 6.78125 6.46658 6.78125 6.35339C6.78125 6.24018 6.73718 6.1337 6.65708 6.05373L3.98995 3.38659L6.65708 0.719453C6.73718 0.639465 6.78125 0.532987 6.78125 0.419792Z" fill="white"/>
</svg>
