<svg width="40" height="40" viewBox="0 0 40 40" fill="none" xmlns="http://www.w3.org/2000/svg">
<path d="M19.9999 14.5833C17.0084 14.5833 14.5833 17.0084 14.5833 19.9999C14.5833 22.9914 17.0084 25.4166 19.9999 25.4166C22.9914 25.4166 25.4166 22.9914 25.4166 19.9999C25.4166 17.0084 22.9914 14.5833 19.9999 14.5833Z" fill="white"/>
<path fill-rule="evenodd" clip-rule="evenodd" d="M14.3895 12.437C14.8845 12.9183 14.8956 13.7097 14.4143 14.2046C11.3062 17.4014 11.3062 22.5984 14.4143 25.7952C14.8956 26.2902 14.8845 27.0816 14.3895 27.5627C13.8945 28.0441 13.1031 28.0329 12.6219 27.5379C8.57037 23.3709 8.57037 16.6289 12.6219 12.4619C13.1031 11.9669 13.8945 11.9558 14.3895 12.437ZM25.6104 12.437C26.1053 11.9558 26.8968 11.9669 27.3779 12.4619C31.4294 16.6289 31.4294 23.3709 27.3779 27.5379C26.8968 28.0329 26.1053 28.0441 25.6104 27.5627C25.1154 27.0816 25.1043 26.2902 25.5856 25.7952C28.6936 22.5984 28.6936 17.4014 25.5856 14.2046C25.1043 13.7097 25.1154 12.9183 25.6104 12.437Z" fill="white"/>
<path fill-rule="evenodd" clip-rule="evenodd" d="M10.8672 9.11689C11.355 9.60547 11.3543 10.3969 10.8657 10.8847C5.82244 15.9192 5.82244 24.0808 10.8657 29.1153C11.3543 29.6032 11.355 30.3945 10.8672 30.8832C10.3795 31.3717 9.58804 31.3723 9.09945 30.8847C3.07785 24.8735 3.07785 15.1265 9.09945 9.11535C9.58804 8.62762 10.3795 8.6283 10.8672 9.11689ZM29.1326 9.11689C29.6204 8.6283 30.4118 8.62762 30.9004 9.11535C36.9219 15.1265 36.9219 24.8735 30.9004 30.8847C30.4118 31.3723 29.6204 31.3717 29.1326 30.8832C28.6449 30.3945 28.6456 29.6032 29.1341 29.1153C34.1774 24.0808 34.1774 15.9192 29.1341 10.8847C28.6456 10.3969 28.6449 9.60547 29.1326 9.11689Z" fill="white"/>
</svg>
