<svg width="15" height="13" viewBox="0 0 15 13" fill="none" xmlns="http://www.w3.org/2000/svg">
<path d="M14.999 9.7998V3.52004C14.9979 2.5868 14.6233 1.69208 13.9573 1.03217C13.2913 0.372267 12.3883 0.00106474 11.4464 0H3.55258C2.61071 0.00106474 1.70772 0.372267 1.04171 1.03217C0.375708 1.69208 0.00107458 2.5868 0 3.52004V6.82889C0.00107458 7.76213 0.375708 8.65685 1.04171 9.31676C1.70772 9.97666 2.61071 10.3479 3.55258 10.3489H9.66098C12.2848 10.3489 14.0611 12.7627 14.0784 12.7878C14.1407 12.875 14.2293 12.9402 14.3316 12.9741C14.4338 13.0079 14.5442 13.0087 14.6469 12.9762C14.7496 12.9437 14.8391 12.8796 14.9026 12.7933C14.9661 12.707 15.0002 12.6029 15 12.4962V9.84405C14.9998 9.82929 14.9991 9.81453 14.998 9.7998H14.999ZM13.986 11.1937C12.8314 10.0591 11.2871 9.39824 9.662 9.3432H3.55359C2.88084 9.3424 2.23587 9.07725 1.76016 8.60589C1.28445 8.13454 1.01684 7.49548 1.01604 6.82889V3.52004C1.01684 2.85345 1.28445 2.21439 1.76016 1.74304C2.23587 1.27168 2.88084 1.00653 3.55359 1.00573H11.4464C12.1192 1.00653 12.7641 1.27168 13.2398 1.74304C13.7155 2.21439 13.9832 2.85345 13.984 3.52004V9.84607C13.984 9.86015 13.984 9.87523 13.986 9.89032V11.1937ZM11.1378 3.161C11.1378 3.29437 11.0844 3.42227 10.9892 3.51658C10.894 3.61088 10.7649 3.66386 10.6303 3.66386H6.00284C5.86824 3.66386 5.73915 3.61088 5.64398 3.51658C5.5488 3.42227 5.49533 3.29437 5.49533 3.161C5.49533 3.02763 5.5488 2.89973 5.64398 2.80542C5.73915 2.71112 5.86824 2.65814 6.00284 2.65814H10.6303C10.7649 2.65814 10.894 2.71112 10.9892 2.80542C11.0844 2.89973 11.1378 3.02763 11.1378 3.161ZM11.1378 5.17245C11.1378 5.30582 11.0844 5.43373 10.9892 5.52803C10.894 5.62234 10.7649 5.67532 10.6303 5.67532H4.3717C4.2371 5.67532 4.10801 5.62234 4.01284 5.52803C3.91766 5.43373 3.86419 5.30582 3.86419 5.17245C3.86419 5.03908 3.91766 4.91118 4.01284 4.81687C4.10801 4.72257 4.2371 4.66959 4.3717 4.66959H10.6303C10.7649 4.66959 10.894 4.72257 10.9892 4.81687C11.0844 4.91118 11.1378 5.03908 11.1378 5.17245ZM11.1378 7.18391C11.1378 7.31727 11.0844 7.44518 10.9892 7.53948C10.894 7.63379 10.7649 7.68677 10.6303 7.68677H4.3717C4.2371 7.68677 4.10801 7.63379 4.01284 7.53948C3.91766 7.44518 3.86419 7.31727 3.86419 7.18391C3.86419 7.05054 3.91766 6.92263 4.01284 6.82833C4.10801 6.73402 4.2371 6.68104 4.3717 6.68104H10.6303C10.7649 6.68104 10.894 6.73402 10.9892 6.82833C11.0844 6.92263 11.1378 7.05054 11.1378 7.18391Z" fill="white"/>
</svg>
