<svg width="38" height="38" viewBox="0 0 38 38" fill="none" xmlns="http://www.w3.org/2000/svg">
<g clip-path="url(#clip0_216_142)">
<path d="M19 34.8333C20.7416 34.8333 22.1666 33.4083 22.1666 31.6666H15.8333C15.8333 33.4083 17.2425 34.8333 19 34.8333ZM28.5 25.3333V17.4166C28.5 12.5558 25.9033 8.48658 21.375 7.40992V6.33325C21.375 5.01909 20.3141 3.95825 19 3.95825C17.6858 3.95825 16.625 5.01909 16.625 6.33325V7.40992C12.0808 8.48658 9.49996 12.5399 9.49996 17.4166V25.3333L7.45746 27.3758C6.45996 28.3733 7.15663 30.0833 8.56579 30.0833H29.4183C30.8275 30.0833 31.54 28.3733 30.5425 27.3758L28.5 25.3333Z" fill="white"/>
</g>
<defs>
<clipPath id="clip0_216_142">
<rect width="38" height="38" fill="white"/>
</clipPath>
</defs>
</svg>
