<svg width="43" height="43" viewBox="0 0 43 43" fill="none" xmlns="http://www.w3.org/2000/svg">
<g clip-path="url(#clip0_217_145)">
<path d="M28.6667 19.7083C31.6409 19.7083 34.0238 17.3074 34.0238 14.3333C34.0238 11.3591 31.6409 8.95825 28.6667 8.95825C25.6926 8.95825 23.2917 11.3591 23.2917 14.3333C23.2917 17.3074 25.6926 19.7083 28.6667 19.7083ZM14.3334 19.7083C17.3076 19.7083 19.6905 17.3074 19.6905 14.3333C19.6905 11.3591 17.3076 8.95825 14.3334 8.95825C11.3592 8.95825 8.95841 11.3591 8.95841 14.3333C8.95841 17.3074 11.3592 19.7083 14.3334 19.7083ZM14.3334 23.2916C10.1588 23.2916 1.79175 25.3878 1.79175 29.5624V32.2499C1.79175 33.2353 2.598 34.0416 3.58341 34.0416H25.0834C26.0688 34.0416 26.8751 33.2353 26.8751 32.2499V29.5624C26.8751 25.3878 18.508 23.2916 14.3334 23.2916ZM28.6667 23.2916C28.1472 23.2916 27.5559 23.3274 26.9288 23.3812C26.9647 23.3991 26.9826 23.4349 27.0005 23.4528C29.043 24.9399 30.4584 26.9287 30.4584 29.5624V32.2499C30.4584 32.877 30.333 33.4862 30.1359 34.0416H39.4167C40.4022 34.0416 41.2084 33.2353 41.2084 32.2499V29.5624C41.2084 25.3878 32.8413 23.2916 28.6667 23.2916Z" fill="white"/>
</g>
<defs>
<clipPath id="clip0_217_145">
<rect width="43" height="43" fill="white"/>
</clipPath>
</defs>
</svg>
